<?xml version="1.0" encoding="utf-8"?>
<!-- Generator: Adobe Illustrator 16.0.0, SVG Export Plug-In . SVG Version: 6.00 Build 0)  -->
<!DOCTYPE svg PUBLIC "-//W3C//DTD SVG 1.1//EN" "http://www.w3.org/Graphics/SVG/1.1/DTD/svg11.dtd">
<svg version="1.1" id="Calque_1" xmlns="http://www.w3.org/2000/svg" xmlns:xlink="http://www.w3.org/1999/xlink" x="0px" y="0px"
	 width="595.28px" height="595.28px" viewBox="0 0 595.28 595.28" enable-background="new 0 0 595.28 595.28" xml:space="preserve">
<g>
	<linearGradient id="SVGID_1_" gradientUnits="userSpaceOnUse" x1="124.1665" y1="363.2402" x2="448.0674" y2="363.2402">
		<stop  offset="0" style="stop-color:#730047"/>
		<stop  offset="0.228" style="stop-color:#970044"/>
		<stop  offset="0.4846" style="stop-color:#C1223A"/>
		<stop  offset="0.7083" style="stop-color:#E33527"/>
		<stop  offset="0.8876" style="stop-color:#F9400E"/>
		<stop  offset="1" style="stop-color:#FF4500"/>
	</linearGradient>
	<path fill="url(#SVGID_1_)" d="M447.029,294.64c-2.045-6.792-6.534-11.824-11.132-15.507c-1.188-0.844-2.369-1.697-3.577-2.501
		c-1.142-0.847-2.458-1.34-3.633-1.995c-1.188-0.618-2.342-1.266-3.523-1.759c-1.242-0.432-2.396-0.888-3.551-1.313
		c-2.255-0.807-4.455-1.458-6.521-1.988c-6.339-1.688-11.645-2.269-15.499-2.69c-3.923-0.27-6.447-0.425-7.493-0.5
		c1.046,0.111,3.57,0.344,7.438,0.723c3.849,0.503,9.141,1.235,15.324,3.041c2.073,0.57,4.213,1.299,6.494,2.184
		c1.101,0.429,2.262,0.888,3.443,1.344c1.147,0.537,2.269,1.195,3.415,1.843c1.162,0.655,2.417,1.191,3.538,1.995
		c1.106,0.847,2.269,1.695,3.416,2.535c4.374,3.686,8.519,8.637,10.247,15.01c1.682,6.409,0.58,13.626-2.43,20.377
		c-1.256,3.456-3.518,6.615-5.522,9.95c-2.498,3.038-4.719,6.413-7.702,9.248c-1.398,1.459-2.809,2.957-4.26,4.456
		c-1.621,1.377-3.228,2.761-4.881,4.179c-3.342,2.619-6.812,5.225-10.592,7.527c-7.494,4.725-15.709,8.938-24.411,12.63
		c-17.471,7.339-36.777,12.786-57.063,16.897c-20.293,4.023-41.604,6.562-63.321,7.291c-21.704,0.722-43.873-0.271-65.516-4.192
		c-8.27-1.532-16.479-3.49-24.424-6.144c-0.054-0.114-0.122-0.27-0.155-0.385c-1.681-4.489-2.464-9.012-2.12-13.812
		c0.108-4.767,2.153-9.6,1.006-15.675c-0.554-3.1-2.842-5.482-5.029-7.251c-1.154-0.763-2.309-1.647-3.544-2.261l-3.672-1.763
		c-5.191-1.998-9.91-3.53-15.405-4.726c-5.292-0.999-10.659-2.262-16.843-0.722c-1.506,0.492-3.301,1.343-4.381,3.139
		c-1.074,1.769-1.107,3.767-0.851,5.34c0.634,3.227,2.093,5.759,3.571,8.188c3.072,4.746,6.812,8.897,10.646,12.887
		c1.958,2.006,3.997,3.916,6.062,5.759c1.121,0.958,2.039,1.803,3.335,2.768l3.537,2.336c4.766,3.112,9.856,5.495,15.034,7.757
		c2.126,0.844,4.26,1.646,6.42,2.383c1.235,3.497,2.019,6.872,2.464,10.437c0.682,4.577,0.182,9.329,1.843,14.325
		c1.931,5.062,6.447,7.898,10.39,10.045c4.084,2.234,8.222,3.767,12.333,5.306c4.145,1.613,8.897,1.958,13.089,1.613
		c8.553-0.735,16.195-3.152,23.567-4.685c7.318-1.532,14.514-2.531,20.967-1.033c12.86,3.369,23.722,8.79,30.595,15.54
		c7.027,6.71,9.512,14.359,10.437,19.389c0.452,2.565,0.688,4.536,0.688,5.873c0.067,1.337,0.121,2.038,0.121,2.038
		s0-0.701-0.054-2.038c0-1.337-0.135-3.335-0.526-5.914c-0.811-5.069-3.153-12.853-10.1-19.888
		c-6.858-7.102-17.687-12.819-30.79-16.62c-6.785-1.802-14.312-0.918-21.757,0.459c-7.521,1.378-15.209,3.692-23.304,4.227
		c-4.118,0.27-8.026-0.041-11.976-1.58c-3.956-1.566-8.074-3.187-11.868-5.292c-3.74-2.106-7.446-4.713-8.816-8.526
		c-1.269-3.875-0.851-8.742-1.458-13.616c-0.311-2.849-0.891-5.806-1.688-8.682c7.176,2.269,14.46,4.03,21.832,5.373
		c22.108,3.875,44.541,4.801,66.494,3.983c21.953-0.87,43.454-3.523,63.942-7.662c10.234-2.153,20.266-4.61,29.913-7.567
		c9.586-2.997,18.881-6.406,27.704-10.207c8.803-3.848,17.086-8.29,24.688-13.204c3.834-2.424,7.398-5.191,10.854-7.952
		c1.614-1.418,3.234-2.876,4.807-4.294c1.594-1.62,2.964-3.152,4.402-4.685c3.01-2.964,5.278-6.454,7.77-9.641
		c2.032-3.49,4.367-6.757,5.597-10.477C448.028,309.153,449.021,301.391,447.029,294.64z M168.212,374.676
		c-4.975-2.153-9.883-4.415-14.379-7.298l-3.362-2.187c-0.905-0.655-2.012-1.647-2.977-2.498c-2.025-1.762-3.99-3.605-5.873-5.522
		c-3.727-3.794-7.338-7.831-10.14-12.138c-1.371-2.146-2.559-4.441-2.984-6.562c-0.317-2.146,0.189-3.099,2.295-3.794
		c4.293-1.161,9.789-0.229,14.757,0.756c4.833,1.006,10.113,2.734,14.656,4.429c4.516,1.917,9.107,4.496,9.984,8.52
		c0.925,4.063-0.817,9.248-0.972,14.467c-0.263,4.341,0.392,8.796,1.694,12.86C169.988,375.364,169.104,375.02,168.212,374.676z"/>
	<linearGradient id="SVGID_2_" gradientUnits="userSpaceOnUse" x1="392.0996" y1="268.2695" x2="415.0918" y2="268.2695">
		<stop  offset="0" style="stop-color:#730047"/>
		<stop  offset="0.228" style="stop-color:#970044"/>
		<stop  offset="0.4846" style="stop-color:#C1223A"/>
		<stop  offset="0.7083" style="stop-color:#E33527"/>
		<stop  offset="0.8876" style="stop-color:#F9400E"/>
		<stop  offset="1" style="stop-color:#FF4500"/>
	</linearGradient>
	<path fill="url(#SVGID_2_)" d="M399.593,266.887c-3.923-0.27-6.447-0.425-7.493-0.5c1.046,0.111,3.57,0.344,7.438,0.723
		c3.849,0.503,9.141,1.235,15.324,3.041l0.229-0.574C408.753,267.89,403.447,267.309,399.593,266.887z"/>
	<linearGradient id="SVGID_3_" gradientUnits="userSpaceOnUse" x1="169.9136" y1="211.4707" x2="425.3672" y2="211.4707">
		<stop  offset="0" style="stop-color:#730047"/>
		<stop  offset="0.228" style="stop-color:#970044"/>
		<stop  offset="0.4846" style="stop-color:#C1223A"/>
		<stop  offset="0.7083" style="stop-color:#E33527"/>
		<stop  offset="0.8876" style="stop-color:#F9400E"/>
		<stop  offset="1" style="stop-color:#FF4500"/>
	</linearGradient>
	<path fill="url(#SVGID_3_)" d="M424.895,202.816c-0.831-14.052-3.619-27.593-8.54-40.612h0.925l-6.265-12.691l-2.315-4.746h-0.385
		c-21.4-39.472-59.676-64.574-102.401-67.5v-0.614h-16.465v0.614c-42.813,2.926-81.015,28.029-102.415,67.5h-0.392l-2.315,4.746
		l-6.258,12.691h0.851c-4.854,13.019-7.628,26.561-8.479,40.612h-0.527v17.387h0.527c0.851,13.967,3.625,27.576,8.479,40.588h-0.851
		l6.258,12.729l2.315,4.665h0.392c21.4,39.535,59.602,64.647,102.415,67.551v0.554h16.465v-0.554
		c42.726-2.903,81.001-28.016,102.401-67.551h0.385l2.315-4.665l6.265-12.729h-0.925c4.921-13.012,7.709-26.622,8.54-40.588h0.473
		v-17.387H424.895z M250.645,106.315c-7.189,10.443-13.231,23.509-17.917,38.452h-25.281
		C218.647,127.88,233.391,114.953,250.645,106.315z M197.233,162.204h30.892c-2.829,13.019-4.482,26.561-4.935,40.612h-35.745
		C188.424,188.701,191.563,175.081,197.233,162.204z M187.445,220.203h35.745c0.453,13.967,2.106,27.576,4.935,40.588h-30.892
		C191.563,247.84,188.424,234.241,187.445,220.203z M207.447,278.185h25.281c4.686,14.986,10.727,27.999,17.917,38.415
		C233.391,308.066,218.647,295.055,207.447,278.185z M289.448,326.55c-15.473-4.793-29.447-22.229-38.803-48.365h38.803V326.55z
		 M289.448,260.792h-43.67c-3.105-12.951-4.671-26.55-5.272-40.588h48.942V260.792z M289.448,202.816h-48.942
		c0.601-14.052,2.167-27.735,5.272-40.612h43.67V202.816z M289.448,144.768h-38.803c9.356-26.085,23.331-43.586,38.803-48.389
		V144.768z M387.9,144.768h-25.355c-4.691-14.943-10.66-28.009-17.855-38.452C361.883,114.953,376.694,127.88,387.9,144.768z
		 M305.913,96.378c15.405,4.803,29.427,22.304,38.776,48.389h-38.776V96.378z M305.913,162.204h43.644
		c3.105,12.877,4.678,26.561,5.225,40.612h-48.868V162.204z M305.913,220.203h48.868c-0.547,14.038-2.119,27.637-5.225,40.588
		h-43.644V220.203z M305.913,326.55v-48.365h38.776C335.34,304.32,321.318,321.757,305.913,326.55z M344.689,316.6
		c7.195-10.416,13.164-23.429,17.855-38.415H387.9C376.694,295.055,361.883,308.066,344.689,316.6z M398.04,260.792h-30.811
		c2.815-13.012,4.401-26.622,4.941-40.588h35.738C406.917,234.241,403.765,247.84,398.04,260.792z M372.171,202.816
		c-0.54-14.052-2.126-27.593-4.941-40.612h30.811c5.725,12.877,8.877,26.497,9.869,40.612H372.171z"/>
	<linearGradient id="SVGID_4_" gradientUnits="userSpaceOnUse" x1="122.8682" y1="481.5225" x2="472.3916" y2="481.5225">
		<stop  offset="0" style="stop-color:#730047"/>
		<stop  offset="0.228" style="stop-color:#970044"/>
		<stop  offset="0.4846" style="stop-color:#C1223A"/>
		<stop  offset="0.7083" style="stop-color:#E33527"/>
		<stop  offset="0.8876" style="stop-color:#F9400E"/>
		<stop  offset="1" style="stop-color:#FF4500"/>
	</linearGradient>
	<path fill="url(#SVGID_4_)" d="M453.841,454.948H134.682l-11.813,53.148h349.523L453.841,454.948z M385.983,462.145l1.674,8.006
		h-8.445l-1.667-8.006H385.983z M371.651,462.145l1.674,8.006h-8.444l-1.675-8.006H371.651z M131.752,497.957l7.541-35.414h202.399
		l5.057,35.414H131.752z M349.719,462.145h8.404l1.708,8.006h-8.445L349.719,462.145z M356.455,497.127l-4.219-21.927h37.108
		l5.894,21.927H356.455z M395.238,460.437h53.958l13.528,37.521h-58.204L395.238,460.437z"/>
	<linearGradient id="SVGID_5_" gradientUnits="userSpaceOnUse" x1="122.8818" y1="513.3555" x2="472.4121" y2="513.3555">
		<stop  offset="0" style="stop-color:#730047"/>
		<stop  offset="0.228" style="stop-color:#970044"/>
		<stop  offset="0.4846" style="stop-color:#C1223A"/>
		<stop  offset="0.7083" style="stop-color:#E33527"/>
		<stop  offset="0.8876" style="stop-color:#F9400E"/>
		<stop  offset="1" style="stop-color:#FF4500"/>
	</linearGradient>
	<rect x="122.882" y="508.083" fill="url(#SVGID_5_)" width="349.53" height="10.544"/>
	<linearGradient id="SVGID_6_" gradientUnits="userSpaceOnUse" x1="140.3994" y1="469.9482" x2="151.1938" y2="469.9482">
		<stop  offset="0" style="stop-color:#730047"/>
		<stop  offset="0.228" style="stop-color:#970044"/>
		<stop  offset="0.4846" style="stop-color:#C1223A"/>
		<stop  offset="0.7083" style="stop-color:#E33527"/>
		<stop  offset="0.8876" style="stop-color:#F9400E"/>
		<stop  offset="1" style="stop-color:#FF4500"/>
	</linearGradient>
	<polygon fill="url(#SVGID_6_)" points="148.71,474.106 140.399,474.106 142.877,465.79 151.194,465.79 	"/>
	<linearGradient id="SVGID_7_" gradientUnits="userSpaceOnUse" x1="154.7852" y1="469.9482" x2="165.5864" y2="469.9482">
		<stop  offset="0" style="stop-color:#730047"/>
		<stop  offset="0.228" style="stop-color:#970044"/>
		<stop  offset="0.4846" style="stop-color:#C1223A"/>
		<stop  offset="0.7083" style="stop-color:#E33527"/>
		<stop  offset="0.8876" style="stop-color:#F9400E"/>
		<stop  offset="1" style="stop-color:#FF4500"/>
	</linearGradient>
	<polygon fill="url(#SVGID_7_)" points="163.096,474.106 154.785,474.106 157.256,465.79 165.586,465.79 	"/>
	<linearGradient id="SVGID_8_" gradientUnits="userSpaceOnUse" x1="169.1709" y1="469.9482" x2="179.9722" y2="469.9482">
		<stop  offset="0" style="stop-color:#730047"/>
		<stop  offset="0.228" style="stop-color:#970044"/>
		<stop  offset="0.4846" style="stop-color:#C1223A"/>
		<stop  offset="0.7083" style="stop-color:#E33527"/>
		<stop  offset="0.8876" style="stop-color:#F9400E"/>
		<stop  offset="1" style="stop-color:#FF4500"/>
	</linearGradient>
	<polygon fill="url(#SVGID_8_)" points="177.495,474.106 169.171,474.106 171.662,465.79 179.972,465.79 	"/>
	<linearGradient id="SVGID_9_" gradientUnits="userSpaceOnUse" x1="183.5771" y1="469.9482" x2="194.3711" y2="469.9482">
		<stop  offset="0" style="stop-color:#730047"/>
		<stop  offset="0.228" style="stop-color:#970044"/>
		<stop  offset="0.4846" style="stop-color:#C1223A"/>
		<stop  offset="0.7083" style="stop-color:#E33527"/>
		<stop  offset="0.8876" style="stop-color:#F9400E"/>
		<stop  offset="1" style="stop-color:#FF4500"/>
	</linearGradient>
	<polygon fill="url(#SVGID_9_)" points="191.887,474.106 183.577,474.106 186.062,465.79 194.371,465.79 	"/>
	<linearGradient id="SVGID_10_" gradientUnits="userSpaceOnUse" x1="197.9697" y1="469.9482" x2="208.7705" y2="469.9482">
		<stop  offset="0" style="stop-color:#730047"/>
		<stop  offset="0.228" style="stop-color:#970044"/>
		<stop  offset="0.4846" style="stop-color:#C1223A"/>
		<stop  offset="0.7083" style="stop-color:#E33527"/>
		<stop  offset="0.8876" style="stop-color:#F9400E"/>
		<stop  offset="1" style="stop-color:#FF4500"/>
	</linearGradient>
	<polygon fill="url(#SVGID_10_)" points="206.286,474.106 197.97,474.106 200.454,465.79 208.771,465.79 	"/>
	<linearGradient id="SVGID_11_" gradientUnits="userSpaceOnUse" x1="212.3687" y1="469.9482" x2="223.1699" y2="469.9482">
		<stop  offset="0" style="stop-color:#730047"/>
		<stop  offset="0.228" style="stop-color:#970044"/>
		<stop  offset="0.4846" style="stop-color:#C1223A"/>
		<stop  offset="0.7083" style="stop-color:#E33527"/>
		<stop  offset="0.8876" style="stop-color:#F9400E"/>
		<stop  offset="1" style="stop-color:#FF4500"/>
	</linearGradient>
	<polygon fill="url(#SVGID_11_)" points="220.665,474.106 212.369,474.106 214.833,465.79 223.17,465.79 	"/>
	<linearGradient id="SVGID_12_" gradientUnits="userSpaceOnUse" x1="226.7612" y1="469.9482" x2="237.5625" y2="469.9482">
		<stop  offset="0" style="stop-color:#730047"/>
		<stop  offset="0.228" style="stop-color:#970044"/>
		<stop  offset="0.4846" style="stop-color:#C1223A"/>
		<stop  offset="0.7083" style="stop-color:#E33527"/>
		<stop  offset="0.8876" style="stop-color:#F9400E"/>
		<stop  offset="1" style="stop-color:#FF4500"/>
	</linearGradient>
	<polygon fill="url(#SVGID_12_)" points="235.064,474.106 226.761,474.106 229.246,465.79 237.562,465.79 	"/>
	<linearGradient id="SVGID_13_" gradientUnits="userSpaceOnUse" x1="241.1538" y1="469.9482" x2="251.9482" y2="469.9482">
		<stop  offset="0" style="stop-color:#730047"/>
		<stop  offset="0.228" style="stop-color:#970044"/>
		<stop  offset="0.4846" style="stop-color:#C1223A"/>
		<stop  offset="0.7083" style="stop-color:#E33527"/>
		<stop  offset="0.8876" style="stop-color:#F9400E"/>
		<stop  offset="1" style="stop-color:#FF4500"/>
	</linearGradient>
	<polygon fill="url(#SVGID_13_)" points="249.484,474.106 241.154,474.106 243.638,465.79 251.948,465.79 	"/>
	<linearGradient id="SVGID_14_" gradientUnits="userSpaceOnUse" x1="255.5459" y1="469.9482" x2="266.3472" y2="469.9482">
		<stop  offset="0" style="stop-color:#730047"/>
		<stop  offset="0.228" style="stop-color:#970044"/>
		<stop  offset="0.4846" style="stop-color:#C1223A"/>
		<stop  offset="0.7083" style="stop-color:#E33527"/>
		<stop  offset="0.8876" style="stop-color:#F9400E"/>
		<stop  offset="1" style="stop-color:#FF4500"/>
	</linearGradient>
	<polygon fill="url(#SVGID_14_)" points="263.87,474.106 255.546,474.106 258.037,465.79 266.347,465.79 	"/>
	<linearGradient id="SVGID_15_" gradientUnits="userSpaceOnUse" x1="269.9521" y1="469.9482" x2="280.7534" y2="469.9482">
		<stop  offset="0" style="stop-color:#730047"/>
		<stop  offset="0.228" style="stop-color:#970044"/>
		<stop  offset="0.4846" style="stop-color:#C1223A"/>
		<stop  offset="0.7083" style="stop-color:#E33527"/>
		<stop  offset="0.8876" style="stop-color:#F9400E"/>
		<stop  offset="1" style="stop-color:#FF4500"/>
	</linearGradient>
	<polygon fill="url(#SVGID_15_)" points="278.269,474.106 269.952,474.106 272.423,465.79 280.753,465.79 	"/>
	<linearGradient id="SVGID_16_" gradientUnits="userSpaceOnUse" x1="284.3447" y1="469.9482" x2="295.1455" y2="469.9482">
		<stop  offset="0" style="stop-color:#730047"/>
		<stop  offset="0.228" style="stop-color:#970044"/>
		<stop  offset="0.4846" style="stop-color:#C1223A"/>
		<stop  offset="0.7083" style="stop-color:#E33527"/>
		<stop  offset="0.8876" style="stop-color:#F9400E"/>
		<stop  offset="1" style="stop-color:#FF4500"/>
	</linearGradient>
	<polygon fill="url(#SVGID_16_)" points="292.648,474.106 284.345,474.106 286.815,465.79 295.146,465.79 	"/>
	<linearGradient id="SVGID_17_" gradientUnits="userSpaceOnUse" x1="298.7373" y1="469.9482" x2="309.5312" y2="469.9482">
		<stop  offset="0" style="stop-color:#730047"/>
		<stop  offset="0.228" style="stop-color:#970044"/>
		<stop  offset="0.4846" style="stop-color:#C1223A"/>
		<stop  offset="0.7083" style="stop-color:#E33527"/>
		<stop  offset="0.8876" style="stop-color:#F9400E"/>
		<stop  offset="1" style="stop-color:#FF4500"/>
	</linearGradient>
	<polygon fill="url(#SVGID_17_)" points="307.047,474.106 298.737,474.106 301.222,465.79 309.531,465.79 	"/>
	<linearGradient id="SVGID_18_" gradientUnits="userSpaceOnUse" x1="313.1299" y1="469.9482" x2="323.9307" y2="469.9482">
		<stop  offset="0" style="stop-color:#730047"/>
		<stop  offset="0.228" style="stop-color:#970044"/>
		<stop  offset="0.4846" style="stop-color:#C1223A"/>
		<stop  offset="0.7083" style="stop-color:#E33527"/>
		<stop  offset="0.8876" style="stop-color:#F9400E"/>
		<stop  offset="1" style="stop-color:#FF4500"/>
	</linearGradient>
	<polygon fill="url(#SVGID_18_)" points="321.433,474.106 313.13,474.106 315.607,465.79 323.931,465.79 	"/>
	<linearGradient id="SVGID_19_" gradientUnits="userSpaceOnUse" x1="327.5215" y1="469.9482" x2="338.3232" y2="469.9482">
		<stop  offset="0" style="stop-color:#730047"/>
		<stop  offset="0.228" style="stop-color:#970044"/>
		<stop  offset="0.4846" style="stop-color:#C1223A"/>
		<stop  offset="0.7083" style="stop-color:#E33527"/>
		<stop  offset="0.8876" style="stop-color:#F9400E"/>
		<stop  offset="1" style="stop-color:#FF4500"/>
	</linearGradient>
	<polygon fill="url(#SVGID_19_)" points="335.839,474.106 327.521,474.106 330.006,465.79 338.323,465.79 	"/>
	<linearGradient id="SVGID_20_" gradientUnits="userSpaceOnUse" x1="136.5518" y1="481.5254" x2="147.3525" y2="481.5254">
		<stop  offset="0" style="stop-color:#730047"/>
		<stop  offset="0.228" style="stop-color:#970044"/>
		<stop  offset="0.4846" style="stop-color:#C1223A"/>
		<stop  offset="0.7083" style="stop-color:#E33527"/>
		<stop  offset="0.8876" style="stop-color:#F9400E"/>
		<stop  offset="1" style="stop-color:#FF4500"/>
	</linearGradient>
	<polygon fill="url(#SVGID_20_)" points="144.848,485.69 136.552,485.69 139.036,477.36 147.353,477.36 	"/>
	<linearGradient id="SVGID_21_" gradientUnits="userSpaceOnUse" x1="150.9443" y1="481.5254" x2="161.7451" y2="481.5254">
		<stop  offset="0" style="stop-color:#730047"/>
		<stop  offset="0.228" style="stop-color:#970044"/>
		<stop  offset="0.4846" style="stop-color:#C1223A"/>
		<stop  offset="0.7083" style="stop-color:#E33527"/>
		<stop  offset="0.8876" style="stop-color:#F9400E"/>
		<stop  offset="1" style="stop-color:#FF4500"/>
	</linearGradient>
	<polygon fill="url(#SVGID_21_)" points="159.261,485.69 150.944,485.69 153.429,477.36 161.745,477.36 	"/>
	<linearGradient id="SVGID_22_" gradientUnits="userSpaceOnUse" x1="165.3433" y1="481.5254" x2="176.1309" y2="481.5254">
		<stop  offset="0" style="stop-color:#730047"/>
		<stop  offset="0.228" style="stop-color:#970044"/>
		<stop  offset="0.4846" style="stop-color:#C1223A"/>
		<stop  offset="0.7083" style="stop-color:#E33527"/>
		<stop  offset="0.8876" style="stop-color:#F9400E"/>
		<stop  offset="1" style="stop-color:#FF4500"/>
	</linearGradient>
	<polygon fill="url(#SVGID_22_)" points="173.66,485.69 165.343,485.69 167.828,477.36 176.131,477.36 	"/>
	<linearGradient id="SVGID_23_" gradientUnits="userSpaceOnUse" x1="179.7358" y1="481.5254" x2="190.5439" y2="481.5254">
		<stop  offset="0" style="stop-color:#730047"/>
		<stop  offset="0.228" style="stop-color:#970044"/>
		<stop  offset="0.4846" style="stop-color:#C1223A"/>
		<stop  offset="0.7083" style="stop-color:#E33527"/>
		<stop  offset="0.8876" style="stop-color:#F9400E"/>
		<stop  offset="1" style="stop-color:#FF4500"/>
	</linearGradient>
	<polygon fill="url(#SVGID_23_)" points="188.053,485.69 179.736,485.69 182.22,477.36 190.544,477.36 	"/>
	<linearGradient id="SVGID_24_" gradientUnits="userSpaceOnUse" x1="194.1284" y1="481.5254" x2="204.9297" y2="481.5254">
		<stop  offset="0" style="stop-color:#730047"/>
		<stop  offset="0.228" style="stop-color:#970044"/>
		<stop  offset="0.4846" style="stop-color:#C1223A"/>
		<stop  offset="0.7083" style="stop-color:#E33527"/>
		<stop  offset="0.8876" style="stop-color:#F9400E"/>
		<stop  offset="1" style="stop-color:#FF4500"/>
	</linearGradient>
	<polygon fill="url(#SVGID_24_)" points="202.432,485.69 194.128,485.69 196.606,477.36 204.93,477.36 	"/>
	<linearGradient id="SVGID_25_" gradientUnits="userSpaceOnUse" x1="208.5273" y1="481.5254" x2="219.3218" y2="481.5254">
		<stop  offset="0" style="stop-color:#730047"/>
		<stop  offset="0.228" style="stop-color:#970044"/>
		<stop  offset="0.4846" style="stop-color:#C1223A"/>
		<stop  offset="0.7083" style="stop-color:#E33527"/>
		<stop  offset="0.8876" style="stop-color:#F9400E"/>
		<stop  offset="1" style="stop-color:#FF4500"/>
	</linearGradient>
	<polygon fill="url(#SVGID_25_)" points="216.838,485.69 208.527,485.69 211.005,477.36 219.322,477.36 	"/>
	<linearGradient id="SVGID_26_" gradientUnits="userSpaceOnUse" x1="222.9131" y1="481.5254" x2="233.7144" y2="481.5254">
		<stop  offset="0" style="stop-color:#730047"/>
		<stop  offset="0.228" style="stop-color:#970044"/>
		<stop  offset="0.4846" style="stop-color:#C1223A"/>
		<stop  offset="0.7083" style="stop-color:#E33527"/>
		<stop  offset="0.8876" style="stop-color:#F9400E"/>
		<stop  offset="1" style="stop-color:#FF4500"/>
	</linearGradient>
	<polygon fill="url(#SVGID_26_)" points="231.224,485.69 222.913,485.69 225.397,477.36 233.714,477.36 	"/>
	<linearGradient id="SVGID_27_" gradientUnits="userSpaceOnUse" x1="172.1348" y1="491.4424" x2="281.4014" y2="491.4424">
		<stop  offset="0" style="stop-color:#730047"/>
		<stop  offset="0.228" style="stop-color:#970044"/>
		<stop  offset="0.4846" style="stop-color:#C1223A"/>
		<stop  offset="0.7083" style="stop-color:#E33527"/>
		<stop  offset="0.8876" style="stop-color:#F9400E"/>
		<stop  offset="1" style="stop-color:#FF4500"/>
	</linearGradient>
	<polygon fill="url(#SVGID_27_)" points="279.126,495.601 172.135,495.601 174.417,487.284 281.401,487.284 	"/>
	<linearGradient id="SVGID_28_" gradientUnits="userSpaceOnUse" x1="237.3057" y1="481.5254" x2="248.1069" y2="481.5254">
		<stop  offset="0" style="stop-color:#730047"/>
		<stop  offset="0.228" style="stop-color:#970044"/>
		<stop  offset="0.4846" style="stop-color:#C1223A"/>
		<stop  offset="0.7083" style="stop-color:#E33527"/>
		<stop  offset="0.8876" style="stop-color:#F9400E"/>
		<stop  offset="1" style="stop-color:#FF4500"/>
	</linearGradient>
	<polygon fill="url(#SVGID_28_)" points="245.636,485.69 237.306,485.69 239.79,477.36 248.107,477.36 	"/>
	<linearGradient id="SVGID_29_" gradientUnits="userSpaceOnUse" x1="251.7119" y1="481.5254" x2="262.5127" y2="481.5254">
		<stop  offset="0" style="stop-color:#730047"/>
		<stop  offset="0.228" style="stop-color:#970044"/>
		<stop  offset="0.4846" style="stop-color:#C1223A"/>
		<stop  offset="0.7083" style="stop-color:#E33527"/>
		<stop  offset="0.8876" style="stop-color:#F9400E"/>
		<stop  offset="1" style="stop-color:#FF4500"/>
	</linearGradient>
	<polygon fill="url(#SVGID_29_)" points="260.022,485.69 251.712,485.69 254.209,477.36 262.513,477.36 	"/>
	<linearGradient id="SVGID_30_" gradientUnits="userSpaceOnUse" x1="266.1108" y1="481.5254" x2="276.9189" y2="481.5254">
		<stop  offset="0" style="stop-color:#730047"/>
		<stop  offset="0.228" style="stop-color:#970044"/>
		<stop  offset="0.4846" style="stop-color:#C1223A"/>
		<stop  offset="0.7083" style="stop-color:#E33527"/>
		<stop  offset="0.8876" style="stop-color:#F9400E"/>
		<stop  offset="1" style="stop-color:#FF4500"/>
	</linearGradient>
	<polygon fill="url(#SVGID_30_)" points="274.421,485.69 266.111,485.69 268.575,477.36 276.919,477.36 	"/>
	<linearGradient id="SVGID_31_" gradientUnits="userSpaceOnUse" x1="280.5034" y1="481.5254" x2="291.2979" y2="481.5254">
		<stop  offset="0" style="stop-color:#730047"/>
		<stop  offset="0.228" style="stop-color:#970044"/>
		<stop  offset="0.4846" style="stop-color:#C1223A"/>
		<stop  offset="0.7083" style="stop-color:#E33527"/>
		<stop  offset="0.8876" style="stop-color:#F9400E"/>
		<stop  offset="1" style="stop-color:#FF4500"/>
	</linearGradient>
	<polygon fill="url(#SVGID_31_)" points="288.82,485.69 280.503,485.69 282.968,477.36 291.298,477.36 	"/>
	<linearGradient id="SVGID_32_" gradientUnits="userSpaceOnUse" x1="294.9092" y1="481.5254" x2="305.6904" y2="481.5254">
		<stop  offset="0" style="stop-color:#730047"/>
		<stop  offset="0.228" style="stop-color:#970044"/>
		<stop  offset="0.4846" style="stop-color:#C1223A"/>
		<stop  offset="0.7083" style="stop-color:#E33527"/>
		<stop  offset="0.8876" style="stop-color:#F9400E"/>
		<stop  offset="1" style="stop-color:#FF4500"/>
	</linearGradient>
	<polygon fill="url(#SVGID_32_)" points="303.22,485.69 294.909,485.69 297.394,477.36 305.69,477.36 	"/>
	<linearGradient id="SVGID_33_" gradientUnits="userSpaceOnUse" x1="309.2949" y1="481.5254" x2="320.0898" y2="481.5254">
		<stop  offset="0" style="stop-color:#730047"/>
		<stop  offset="0.228" style="stop-color:#970044"/>
		<stop  offset="0.4846" style="stop-color:#C1223A"/>
		<stop  offset="0.7083" style="stop-color:#E33527"/>
		<stop  offset="0.8876" style="stop-color:#F9400E"/>
		<stop  offset="1" style="stop-color:#FF4500"/>
	</linearGradient>
	<polygon fill="url(#SVGID_33_)" points="317.612,485.69 309.295,485.69 311.772,477.36 320.09,477.36 	"/>
	<linearGradient id="SVGID_34_" gradientUnits="userSpaceOnUse" x1="323.6807" y1="481.5254" x2="334.4824" y2="481.5254">
		<stop  offset="0" style="stop-color:#730047"/>
		<stop  offset="0.228" style="stop-color:#970044"/>
		<stop  offset="0.4846" style="stop-color:#C1223A"/>
		<stop  offset="0.7083" style="stop-color:#E33527"/>
		<stop  offset="0.8876" style="stop-color:#F9400E"/>
		<stop  offset="1" style="stop-color:#FF4500"/>
	</linearGradient>
	<polygon fill="url(#SVGID_34_)" points="332.004,485.69 323.681,485.69 326.172,477.36 334.482,477.36 	"/>
</g>
</svg>
